<svg xmlns="http://www.w3.org/2000/svg" style="display: block;" viewBox="0 0 93 93" >
<path d="M0 0 C1.00637009 -0.00095673 2.01274017 -0.00191345 3.04960632 -0.00289917 C5.16498884 -0.00357682 7.28037348 -0.00175161 9.39575195 0.00244141 C12.64343881 0.00782364 15.89098913 0.002468 19.13867188 -0.00390625 C21.19661489 -0.00324594 23.25455782 -0.00196577 25.3125 0 C26.2864119 -0.00202423 27.26032379 -0.00404846 28.26374817 -0.00613403 C29.16195786 -0.00298187 30.06016754 0.00017029 30.9855957 0.00341797 C32.17304131 0.00461136 32.17304131 0.00461136 33.38447571 0.00582886 C35.32421875 0.1328125 35.32421875 0.1328125 37.32421875 1.1328125 C38.82303198 1.19316135 40.32455568 1.19322833 41.82421875 1.16015625 C42.71109375 1.14791016 43.59796875 1.13566406 44.51171875 1.12304688 C46.38679603 1.08788918 48.26180416 1.04882617 50.13671875 1.00585938 C51.02359375 0.99490234 51.91046875 0.98394531 52.82421875 0.97265625 C53.63890625 0.95581787 54.45359375 0.93897949 55.29296875 0.92163086 C57.32421875 1.1328125 57.32421875 1.1328125 59.32421875 3.1328125 C59.65174109 5.84736206 59.45506125 8.38512009 59.32421875 11.1328125 C57.70735801 12.74967324 55.93345725 12.26270599 53.703125 12.265625 C52.76791016 12.26691406 51.83269531 12.26820312 50.86914062 12.26953125 C49.88494141 12.26566406 48.90074219 12.26179688 47.88671875 12.2578125 C46.4162207 12.26361328 46.4162207 12.26361328 44.91601562 12.26953125 C43.51125977 12.26759766 43.51125977 12.26759766 42.078125 12.265625 C40.78370483 12.26393311 40.78370483 12.26393311 39.46313477 12.26220703 C37.32421875 12.1328125 37.32421875 12.1328125 35.32421875 11.1328125 C35.28683594 11.6896875 35.24945313 12.2465625 35.2109375 12.8203125 C34.74784889 18.19577243 34.10958834 23.41582646 31.32421875 28.1328125 C24.73022232 33.4904346 18.55038733 33.86263734 10.32421875 33.1328125 C5.47831757 31.83745083 2.43640798 29.85407991 -0.11328125 25.5078125 C-0.62890625 24.3940625 -1.14453125 23.2803125 -1.67578125 22.1328125 C-2.00578125 21.4728125 -2.33578125 20.8128125 -2.67578125 20.1328125 C-5.70594649 19.61370053 -8.63856344 19.68874275 -11.67578125 20.1328125 C-14.64877666 22.64127738 -15.15163983 25.35899431 -15.67578125 29.1328125 C-19.03173953 28.53353424 -21.05379351 27.28658814 -23.67578125 25.1328125 C-22.22533854 21.02322483 -20.16467373 17.70022505 -17.67578125 14.1328125 C-19.65578125 13.4728125 -21.63578125 12.8128125 -23.67578125 12.1328125 C-24.05078125 8.8828125 -24.05078125 8.8828125 -23.67578125 5.1328125 C-17.12827005 -0.93561251 -8.38681166 -0.01761466 0 0 Z M3.32421875 19.1328125 C3.60079367 22.45171155 4.10788783 23.89681513 6.38671875 26.3828125 C11.41024798 29.37555332 16.06117395 29.59221376 21.63671875 28.3828125 C25.70934866 27.12858833 25.70934866 27.12858833 28.32421875 24.1328125 C29.13593103 21.57761329 29.13593103 21.57761329 29.32421875 19.1328125 C27.64398875 17.4525825 25.56645947 18.00274446 23.265625 18 C21.72745117 17.99806641 21.72745117 17.99806641 20.15820312 17.99609375 C19.07861328 17.99996094 17.99902344 18.00382812 16.88671875 18.0078125 C15.81099609 18.00394531 14.73527344 18.00007813 13.62695312 17.99609375 C12.60021484 17.99738281 11.57347656 17.99867187 10.515625 18 C9.56888916 18.00112793 8.62215332 18.00225586 7.64672852 18.00341797 C5.29887402 17.98016534 5.29887402 17.98016534 3.32421875 19.1328125 Z " transform="translate(28.67578125,52.8671875)" style="fill: #5D9DB9;"/>
<path d="M0 0 C0.99 0 1.98 0 3 0 C3 0.99 3 1.98 3 3 C3.99 3.33 4.98 3.66 6 4 C3.69 4 1.38 4 -1 4 C-0.67 2.68 -0.34 1.36 0 0 Z " transform="translate(18,68)" style="fill: #000000;"></path>
<path d="M0 0 C0.83939117 -0.00111786 1.67878235 -0.00223572 2.54360962 -0.00338745 C16.60849219 0.00584423 30.17339595 0.89113198 43.625 5.375 C43.625 6.035 43.625 6.695 43.625 7.375 C40.75043719 8.02283124 37.87538241 8.66832518 35 9.3125 C34.19175781 9.49490234 33.38351563 9.67730469 32.55078125 9.86523438 C31.36162109 10.13110352 31.36162109 10.13110352 30.1484375 10.40234375 C29.0644165 10.64585571 29.0644165 10.64585571 27.95849609 10.89428711 C22.34101803 12.05151815 16.95196612 12.54590906 11.21875 12.578125 C10.01611511 12.58667511 10.01611511 12.58667511 8.78918457 12.59539795 C7.09482119 12.60481154 5.4004398 12.61136739 3.70605469 12.61523438 C1.16046531 12.62486581 -1.38428969 12.65589242 -3.9296875 12.6875 C-14.84968168 12.75840905 -26.55186906 12.81850397 -36.375 7.375 C-36.375 6.715 -36.375 6.055 -36.375 5.375 C-24.84714543 -0.26084001 -12.55294962 -0.0234457 0 0 Z M-4.375 3.375 C-4.375 3.705 -4.375 4.035 -4.375 4.375 C-0.415 4.705 3.545 5.035 7.625 5.375 C7.625 6.035 7.625 6.695 7.625 7.375 C1.685 7.87 1.685 7.87 -4.375 8.375 C-4.375 8.705 -4.375 9.035 -4.375 9.375 C6.84570643 9.60635477 17.53786142 9.20650372 28.625 7.375 C28.625 6.715 28.625 6.055 28.625 5.375 C17.53786142 3.54349628 6.84570643 3.14364523 -4.375 3.375 Z " transform="translate(45.375,20.625)" style="fill: #ffffff;"></path>
</svg>